mtllib materials.mtl
v 0.1834791 0.05423006 -0.008975655
v 0.1132196 0.05391057 0.06186774
v 0.09407091 0.06446966 0.04363632
v 0.197057 0.03191043 0.002338842
v 0.1267975 0.03159094 0.07318223
v 0.2014263 0.003810778 0.003704697
v 0.1311668 0.00349129 0.07454807
v 0.195416 -0.02253962 -0.005244069
v 0.1251565 -0.02285911 0.06559934
v 0.1103772 -0.04039967 0.04873377
v 0.1799114 -0.03603046 -0.01999925
v 0.09078896 -0.04443042 0.02847052
v 0.1606581 -0.03893243 -0.04069834
v 0.07164037 -0.03387132 0.01023911
v 0.1416649 -0.02714644 -0.0572001
v 0.05806237 -0.0115517 -0.001075372
v 0.1280367 0.0179214 -0.06856394
v 0.05369312 0.01654795 -0.002441227
v 0.1319572 0.04023137 -0.06146529
v 0.05970335 0.04289833 0.006507538
v 0.07448262 0.0604389 0.0233731
v 0.1658877 0.058502 -0.03790473
v 0.1485635 0.05334327 -0.05237483
v 0.2007061 0.03170361 -0.08125406
v 0.02099413 0.05150947 0.1015714
v 0.1933148 0.02714717 -0.08641369
v 0.1356133 -0.004424348 -0.06880197
v 0.2002131 0.001871608 -0.08183972
v 0.2090752 0.004148431 -0.06512295
v 0.2119498 0.01675175 -0.06084277
v 0.02357882 0.02686258 0.1202018
v 0.02431649 -0.003885962 0.124104
v 0.02300936 -0.03249712 0.1122322
v 0.02000767 -0.05130455 0.08776769
v 0.01611573 -0.05526878 0.05726553
v 0.01237643 -0.04332761 0.02889884
v 0.009791672 -0.01868072 0.01026832
v 0.009054065 0.01206786 0.006366223
v 0.01036108 0.04067899 0.0182379
v 0.013363 0.05948638 0.04270254
v 0.01725465 0.06345065 0.07320464
v -0.05645657 0.04239668 0.1045372
v -0.05869746 0.01642025 0.1213135
v -0.05704212 -0.01447448 0.1233185
v -0.05193418 -0.0420093 0.1100147
v -0.04474252 -0.05880623 0.08496705
v -0.03739393 -0.06036456 0.05488694
v -0.03185755 -0.04626675 0.02783434
v -0.02961665 -0.02029028 0.01105788
v -0.03127193 0.01060449 0.009052999
v -0.03637987 0.03813925 0.02235664
v -0.04357147 0.05493618 0.0474045
v -0.05092031 0.05649452 0.0774845
v -0.1430101 0.03842837 0.07274364
v -0.129986 0.05238884 0.0483155
v -0.1497913 0.01255256 0.08841836
v -0.148513 -0.01830524 0.09113994
v -0.1395175 -0.04587672 0.08017898
v -0.1252153 -0.06277402 0.05847253
v -0.1094386 -0.06446967 0.03183675
v -0.09641474 -0.05050918 0.007408723
v -0.08963335 -0.02463333 -0.008266062
v -0.09091151 0.006224476 -0.01098759
v -0.09990704 0.03379588 -2.680719E-05
v -0.1142091 0.05069323 0.02167994
v -0.2224739 0.002628788 0.0005908161
v -0.2176926 0.008680217 -0.00905358
v -0.2242036 -0.0078879 0.006827652
v -0.2224184 -0.02005192 0.007986046
v -0.2175968 -0.030604 0.003755406
v -0.2110305 -0.03671661 -0.004730582
v -0.2044791 -0.03675199 -0.01519816
v -0.1996979 -0.03070055 -0.02484251
v -0.1979681 -0.02018385 -0.0310794
v -0.1997532 -0.008019798 -0.03223774
v -0.2045749 0.002532214 -0.02800713
v -0.2111411 0.008644871 -0.01952109
v -0.2436721 0.004411139 -0.01447372
v -0.2389075 0.01013643 -0.02432328
v -0.2454714 -0.005908497 -0.007934771
v -0.2438232 -0.01805735 -0.006458089
v -0.2391691 -0.02878025 -0.01043969
v -0.2327565 -0.03520387 -0.01881258
v -0.2263033 -0.03560711 -0.02933333
v -0.2215387 -0.02988182 -0.03918283
v -0.2197393 -0.01956218 -0.0457219
v -0.2213874 -0.00741329 -0.04719846
v -0.2260413 0.003309548 -0.04321693
v -0.2336032 0.01048756 -0.03419185
v 0.225702 0.01509114 -0.124104
v 0.2295521 0.02477666 -0.1160921
v 0.2322046 0.006912708 -0.121704
v 0.2420893 0.008826062 -0.1180215
v 0.2454714 0.01891787 -0.1167388
v 0.2389688 0.02709631 -0.1191387
v 0.1924255 0.01308839 -0.09090783
vn 0.261326 0.9286282 0.26336
vn 0.5560909 0.619285 0.5543005
vn 0.7023956 0.1431083 0.697252
vn 0.659857 -0.3721819 0.6527399
vn 0.4399664 -0.7868423 0.4327918
vn 0.1312062 -0.9888896 0.06987389
vn -0.2247734 -0.9268463 -0.3007209
vn -0.515153 -0.6156702 -0.5962949
vn -0.6567863 -0.1381581 -0.7413125
vn -0.6278591 0.3748569 -0.682111
vn -0.4064821 0.787664 -0.4629879
vn -0.06731032 0.9890065 -0.1316645
vn -0.1276907 0.6692218 -0.7320091
vn 0.1404854 0.9135993 0.3815759
vn -0.292322 0.3362282 -0.8952645
vn -0.2530594 -0.07552907 -0.9644979
vn -0.128781 -0.4779542 -0.8688931
vn 0.09887058 -0.7524333 -0.6512056
vn 0.5095161 -0.7793697 -0.3646593
vn 0.7215434 -0.6785136 -0.1378204
vn 0.9611413 -0.2550768 0.1055612
vn 0.9682315 0.1598969 0.1922517
vn 0.8357342 0.5445001 0.07118949
vn 0.5915742 0.7676883 -0.2463626
vn 0.1156059 0.8837419 -0.4534707
vn 0.317145 0.5751809 0.7540464
vn 0.4121269 0.1080571 0.9046961
vn 0.4139501 -0.3759626 0.8290341
vn 0.3237856 -0.7831997 0.5308117
vn 0.1819729 -0.9778029 0.1038623
vn 0.02387541 -0.9202748 -0.3905437
vn -0.1252054 -0.5081367 -0.8521271
vn -0.1795888 -0.1280853 -0.9753677
vn -0.23109 0.3597115 -0.903994
vn -0.19646 0.7888552 -0.5823324
vn -0.05942313 0.988482 -0.1391848
vn -0.09227321 0.9133272 0.3966348
vn 0.1302363 0.9198401 0.3700441
vn -0.0597768 0.9908329 -0.1211487
vn 0.3048681 0.5944375 0.7441098
vn 0.4123158 -0.365164 0.8346562
vn 0.3241934 -0.7687883 0.5512379
vn -0.1492487 -0.6061658 -0.7812092
vn -0.06501786 0.5973801 0.7993183
vn -0.02587542 0.1252432 0.9917886
vn 0.02142514 -0.3839975 0.9230855
vn 0.06601866 -0.7949714 0.6030439
vn 0.08898478 -0.989114 0.1171973
vn 0.07036876 -0.9160312 -0.394886
vn 0.008613106 -0.6024092 -0.798141
vn -0.06134708 -0.1271047 -0.9899904
vn -0.1017535 0.3852227 -0.9171966
vn -0.1127786 0.7943857 -0.5968521
vn -0.08873333 0.9891323 -0.1172333
vn -0.1954215 0.8855311 0.4214798
vn -0.06251474 0.8902597 0.4511426
vn -0.1060019 0.9913602 -0.0772562
vn -0.0319257 0.5441876 0.8383559
vn 0.005228732 0.06503844 0.9978691
vn 0.04692061 -0.4274945 0.9027994
vn 0.08661496 -0.8157372 0.5719011
vn 0.1113781 -0.9906703 0.07853277
vn 0.1044878 -0.8905566 -0.4427089
vn 0.05634857 -0.5450888 -0.8364826
vn -0.0173069 -0.06567113 -0.9976913
vn -0.07550912 0.4224074 -0.9032554
vn -0.09472865 0.8140132 -0.5730699
vn -0.3069759 0.5348737 0.787195
vn -0.3331552 0.04327426 0.9418784
vn -0.2682587 -0.4589896 0.8469746
vn -0.1316622 -0.8403832 0.5257577
vn 0.03738025 -0.9974494 0.06080604
vn 0.1918586 -0.8858765 -0.4223897
vn 0.2935867 -0.5363613 -0.7912796
vn 0.3211293 -0.04418402 -0.9460041
vn 0.267174 0.4589592 -0.8473337
vn 0.1401231 0.8404896 -0.5233956
vn -0.03003569 0.9978042 -0.05903074
vn -0.5375665 0.8229659 0.1837102
vn -0.700115 0.4951296 0.5144762
vn -0.7474533 0.02757708 0.6637416
vn -0.6673351 -0.4527948 0.5913043
vn -0.4820531 -0.8164259 0.3179207
vn -0.2416314 -0.966934 -0.08156513
vn -0.009898243 -0.8658933 -0.5001308
vn 0.1519804 -0.5409349 -0.8272191
vn 0.2008393 -0.07780571 -0.9765295
vn 0.1229055 0.4009882 -0.907801
vn -0.06170564 0.7674819 -0.6380941
vn -0.3036421 0.9224331 -0.2385763
vn -0.2331949 0.871569 0.431263
vn -0.4588134 0.5078477 0.729096
vn -0.5595666 -0.003195152 0.8287792
vn -0.5025995 -0.5096387 0.6983281
vn -0.310451 -0.8688545 0.3856321
vn -0.03884625 -0.9990259 -0.02093756
vn 0.2461559 -0.8712544 -0.4246444
vn 0.4713907 -0.5059369 -0.7223703
vn 0.5688663 0.005167409 -0.8224138
vn 0.509349 0.5104998 -0.6927869
vn 0.3188345 0.868716 -0.3790476
vn 0.0489215 0.9984309 0.02724706
vn -0.8420751 -0.1761946 -0.5097694
vn -0.4440865 0.669285 -0.5956885
vn -0.5749518 -0.6153638 -0.5392196
vn 0.1821384 -0.9830299 0.02185706
vn 0.8142108 -0.3332846 0.4753759
vn 0.6493611 0.6378189 0.4141463
vn -0.3484745 0.8212304 -0.4518254
vn 0.3487268 0.002244931 -0.9372217
vn 0.4490211 0.820528 0.3537144
vn 0.1909268 -0.9810692 0.03240542
vn 0.8094348 -0.345799 0.4745929
vn -0.6898124 0.259672 -0.6758175
vn -0.4608978 -0.7290663 -0.5059997
vn -0.2661337 0.8792096 -0.3951751
vn -0.3723578 0.6749558 -0.637012
vn -0.4382918 0.4162818 -0.796624
vn -0.1630659 -0.5252382 -0.8351852
vn -0.07348292 0.7974223 -0.5989306
vn 0.7404128 0.6424726 0.1975293
vn 0.5901749 -0.7803964 -0.2065794
vn 0.9611416 -0.2550758 0.1055617
vn -0.0493011 -0.8858772 -0.4612929
vn -0.2166689 -0.08097958 -0.9728807
vn -0.18312 0.7571785 -0.627015
vn 0.1439772 -0.9879187 0.05733528
vn -0.5467146 -0.4916717 -0.6777626
vn -0.6327553 -0.2065949 -0.7462837
vn 0.1464994 0.9875814 0.05675152
vn -0.3863276 0.8034088 -0.4530842
vn -0.6298972 0.3338273 -0.7012766
vn -0.2529008 -0.9010133 -0.352443
vn 0.112437 -0.9930549 0.03464082
vn 0.4010129 -0.8457774 0.3519225
vn -0.1173902 0.9715248 -0.2058136
usemtl mat12
f 3//1 2//1 1//1
f 2//2 5//2 4//2 1//2
f 5//3 7//3 6//3 4//3
f 7//4 9//4 8//4 6//4
f 9//5 10//5 8//5
f 10//6 12//6 11//6
f 12//7 14//7 13//7
f 14//8 16//8 15//8
f 16//9 18//9 17//9
f 18//10 20//10 19//10
f 20//11 21//11 19//11
f 21//12 3//12 22//12
f 24//13 19//13 23//13
f 25//14 2//14 3//14
f 26//15 17//15 19//15
f 26//16 27//16 17//16
f 28//17 15//17 27//17
f 28//18 13//18 15//18
f 29//19 11//19 13//19
f 29//20 8//20 11//20
f 30//21 6//21 8//21
f 30//22 4//22 6//22
f 30//23 1//23 4//23
f 30//24 22//24 1//24
f 24//25 23//25 22//25
f 31//26 5//26 2//26
f 31//27 32//27 7//27 5//27
f 33//28 9//28 7//28
f 34//29 10//29 9//29
f 34//30 35//30 12//30
f 35//31 36//31 14//31
f 37//32 16//32 14//32
f 37//33 38//33 18//33
f 38//34 39//34 20//34 18//34
f 39//35 40//35 21//35
f 40//36 3//36 21//36
f 42//37 25//37 41//37
f 3//38 41//38 25//38
f 40//39 41//39 3//39
f 2//40 25//40 31//40
f 7//41 32//41 33//41
f 9//42 33//42 34//42
f 14//43 36//43 37//43
f 43//44 31//44 25//44
f 44//45 32//45 31//45
f 45//46 33//46 32//46
f 46//47 34//47 33//47
f 47//48 35//48 34//48
f 48//49 36//49 35//49
f 49//50 37//50 36//50
f 50//51 38//51 37//51
f 51//52 39//52 38//52
f 52//53 40//53 39//53
f 52//54 41//54 40//54
f 55//55 54//55 42//55 53//55
f 41//56 53//56 42//56
f 52//57 53//57 41//57
f 25//58 42//58 43//58
f 31//59 43//59 44//59
f 32//60 44//60 45//60
f 33//61 45//61 46//61
f 34//62 46//62 47//62
f 35//63 47//63 48//63
f 36//64 48//64 49//64
f 37//65 49//65 50//65
f 38//66 50//66 51//66
f 39//67 51//67 52//67
f 54//68 56//68 43//68 42//68
f 56//69 57//69 44//69 43//69
f 57//70 58//70 45//70 44//70
f 58//71 59//71 46//71 45//71
f 59//72 60//72 47//72 46//72
f 60//73 61//73 48//73 47//73
f 61//74 62//74 49//74 48//74
f 62//75 63//75 50//75 49//75
f 63//76 64//76 51//76 50//76
f 64//77 65//77 52//77 51//77
f 65//78 55//78 53//78 52//78
f 67//79 66//79 54//79 55//79
f 66//80 68//80 56//80 54//80
f 68//81 69//81 57//81 56//81
f 69//82 70//82 58//82 57//82
f 70//83 71//83 59//83 58//83
f 71//84 72//84 60//84 59//84
f 72//85 73//85 61//85 60//85
f 73//86 74//86 62//86 61//86
f 74//87 75//87 63//87 62//87
f 75//88 76//88 64//88 63//88
f 76//89 77//89 65//89 64//89
f 77//90 67//90 55//90 65//90
f 26//118 96//118 27//118
f 27//119 96//119 28//119
f 24//120 26//120 19//120
f 30//121 24//121 22//121
f 13//122 28//122 29//122
f 8//123 29//123 30//123
f 14//124 12//124 35//124
f 18//125 16//125 37//125
f 21//126 20//126 39//126
f 12//127 10//127 34//127
f 16//128 27//128 15//128
f 17//129 27//129 16//129
f 1//130 22//130 3//130
f 21//131 23//131 19//131
f 19//132 17//132 18//132
f 14//133 15//133 13//133
f 12//134 13//134 11//134
f 10//135 11//135 8//135
f 22//136 23//136 21//136
usemtl mat20
f 79//91 78//91 66//91 67//91
f 78//92 80//92 68//92 66//92
f 80//93 81//93 69//93 68//93
f 81//94 82//94 70//94 69//94
f 82//95 83//95 71//95 70//95
f 83//96 84//96 72//96 71//96
f 84//97 85//97 73//97 72//97
f 85//98 86//98 74//98 73//98
f 86//99 87//99 75//99 74//99
f 87//100 88//100 76//100 75//100
f 88//101 89//101 77//101 76//101
f 89//102 79//102 67//102 77//102
f 89//103 88//103 87//103 86//103 85//103 84//103 83//103 82//103 81//103 80//103 78//103 79//103
f 91//104 90//104 26//104
f 90//105 92//105 28//105
f 92//106 93//106 28//106
f 93//107 94//107 30//107
f 94//108 95//108 30//108
f 95//109 91//109 24//109
f 95//110 94//110 93//110 92//110 90//110
f 95//111 24//111 30//111
f 93//112 29//112 28//112
f 30//113 29//113 93//113
f 90//114 96//114 26//114
f 28//115 96//115 90//115
f 91//116 26//116 24//116
f 90//117 91//117 95//117
