# Blender v2.79 (sub 0) OBJ File: 'butterfly.blend'
# www.blender.org
mtllib butterflyWingsUp.mtl
o Cylinder_Cylinder.005
v -0.179706 0.283714 0.001579
v -0.272418 0.249653 0.001579
v -0.246691 0.466045 -0.415415
v -0.339403 0.431984 -0.415415
v -0.146139 0.192345 -0.756812
v -0.238851 0.158284 -0.756812
v -0.032499 -0.116977 -0.611713
v -0.125212 -0.151038 -0.611713
v -0.327590 0.399829 0.654861
v -0.234878 0.433890 0.654861
v -0.222366 0.113412 0.910235
v -0.129654 0.147473 0.910235
v -0.125122 -0.151283 0.853941
v -0.032410 -0.117222 0.853941
v -0.042221 0.037749 -0.703032
v -0.042221 0.037749 0.956357
v 0.083334 -0.179718 -0.703032
v 0.083334 -0.179718 0.956357
v -0.167775 -0.179718 -0.703032
v -0.167775 -0.179718 0.956357
v -0.042345 -0.094146 -0.611713
v 0.042099 -0.145381 -0.611713
v 0.128593 0.187589 -0.756812
v 0.213037 0.136354 -0.756812
v 0.279845 0.436878 -0.415415
v 0.364289 0.385643 -0.415415
v 0.179085 0.270809 0.001579
v 0.263529 0.219574 0.001579
v 0.262076 0.407591 0.654861
v 0.346520 0.356356 0.654861
v 0.103796 0.146719 0.910235
v 0.188240 0.095484 0.910235
v -0.042480 -0.094368 0.853941
v 0.041964 -0.145603 0.853941
vn 0.3126 -0.8509 -0.4223
vn 0.2622 -0.7138 0.6495
vn -0.1390 0.3783 0.9152
vn 0.3349 -0.9117 0.2379
vn 0.2213 -0.6024 -0.7669
vn -0.0675 0.1838 -0.9807
vn 0.9387 0.3448 0.0000
vn -0.9387 -0.3448 0.0000
vn -0.3448 0.9387 0.0002
vn 0.8660 0.5000 0.0000
vn -0.0000 -1.0000 -0.0000
vn 0.0000 0.0000 1.0000
vn -0.8660 0.5000 0.0000
vn -0.0000 0.0000 -1.0000
vn 0.2090 0.3445 0.9152
vn -0.3944 -0.6501 0.6495
vn -0.4702 -0.7750 -0.4223
vn -0.5038 -0.8304 0.2379
vn -0.3329 -0.5487 -0.7669
vn 0.1015 0.1674 -0.9807
vn 0.8549 -0.5187 0.0000
vn -0.8549 0.5187 -0.0000
vn 0.5187 0.8549 0.0002
usemtl None
s off
f 4//1 3//1 1//1 2//1
f 6//2 5//2 3//2 4//2
f 8//3 7//3 5//3 6//3
f 2//4 1//4 10//4 9//4
f 9//5 10//5 12//5 11//5
f 11//6 12//6 14//6 13//6
f 8//7 6//7 4//7 2//7 9//7 11//7 13//7
f 5//8 7//8 14//8 12//8 10//8 1//8 3//8
f 8//9 13//9 14//9 7//9
f 15//10 16//10 18//10 17//10
f 17//11 18//11 20//11 19//11
f 18//12 16//12 20//12
f 19//13 20//13 16//13 15//13
f 15//14 17//14 19//14
f 21//15 22//15 24//15 23//15
f 23//16 24//16 26//16 25//16
f 25//17 26//17 28//17 27//17
f 27//18 28//18 30//18 29//18
f 29//19 30//19 32//19 31//19
f 31//20 32//20 34//20 33//20
f 21//21 23//21 25//21 27//21 29//21 31//21 33//21
f 24//22 22//22 34//22 32//22 30//22 28//22 26//22
f 21//23 33//23 34//23 22//23
